<mxfile host="app.diagrams.net" modified="2023-11-02T02:19:06.478Z" agent="Mozilla/5.0 (Windows NT 10.0; Win64; x64) AppleWebKit/537.36 (KHTML, like Gecko) Chrome/118.0.0.0 Safari/537.36" etag="raP3dHZ4DQJaYWOaG-gN" version="22.0.8" type="device">
  <diagram name="Page-1" id="IaksRc-hDbapmCTz4MMw">
    <mxGraphModel dx="2075" dy="1204" grid="1" gridSize="10" guides="1" tooltips="1" connect="1" arrows="1" fold="1" page="1" pageScale="1" pageWidth="850" pageHeight="1100" math="0" shadow="0">
      <root>
        <mxCell id="0" />
        <mxCell id="1" parent="0" />
        <mxCell id="5I0moj-m555V5XC69A1K-11" value="" style="rounded=0;whiteSpace=wrap;html=1;fillColor=#000000;fillStyle=auto;" parent="1" vertex="1">
          <mxGeometry x="90" y="190" width="700" height="480" as="geometry" />
        </mxCell>
        <mxCell id="5I0moj-m555V5XC69A1K-2" value="" style="rounded=1;whiteSpace=wrap;html=1;fillColor=#000000;strokeColor=#009999;" parent="1" vertex="1">
          <mxGeometry x="323.14" y="480" width="235" height="40" as="geometry" />
        </mxCell>
        <mxCell id="5I0moj-m555V5XC69A1K-3" value="EE" style="rounded=1;whiteSpace=wrap;html=1;fillColor=#000000;strokeColor=#009999;" parent="1" vertex="1">
          <mxGeometry x="324" y="420" width="232" height="40" as="geometry" />
        </mxCell>
        <mxCell id="5I0moj-m555V5XC69A1K-6" value="" style="rounded=0;whiteSpace=wrap;html=1;strokeColor=none;" parent="1" vertex="1">
          <mxGeometry x="90" y="160" width="700" height="30" as="geometry" />
        </mxCell>
        <mxCell id="5I0moj-m555V5XC69A1K-7" value="Login" style="rounded=0;whiteSpace=wrap;html=1;strokeColor=none;" parent="1" vertex="1">
          <mxGeometry x="710" y="160" width="80" height="30" as="geometry" />
        </mxCell>
        <mxCell id="5I0moj-m555V5XC69A1K-14" value="" style="shape=image;verticalLabelPosition=bottom;labelBackgroundColor=default;verticalAlign=top;aspect=fixed;imageAspect=0;image=https://younnikly.com/wp-content/uploads/2022/08/Drawmetrics-Logo-1024x576.png;" parent="1" vertex="1">
          <mxGeometry x="200" y="160" width="497.78" height="280" as="geometry" />
        </mxCell>
        <mxCell id="5I0moj-m555V5XC69A1K-15" value="&lt;b&gt;Password&lt;/b&gt;" style="rounded=0;whiteSpace=wrap;html=1;fontColor=#009999;fillColor=#000000;" parent="1" vertex="1">
          <mxGeometry x="350" y="500" width="185" as="geometry" />
        </mxCell>
        <mxCell id="5I0moj-m555V5XC69A1K-16" value="&lt;b&gt;Email&lt;/b&gt;" style="rounded=0;whiteSpace=wrap;html=1;fontColor=#009999;fillColor=#000000;" parent="1" vertex="1">
          <mxGeometry x="348.14" y="440" width="185" as="geometry" />
        </mxCell>
        <mxCell id="5I0moj-m555V5XC69A1K-17" value="&lt;font color=&quot;#ffffff&quot;&gt;Login&lt;/font&gt;" style="rounded=1;whiteSpace=wrap;html=1;strokeColor=#009999;fontColor=#009999;fillColor=#494C9C;" parent="1" vertex="1">
          <mxGeometry x="387.5" y="560" width="110" height="30" as="geometry" />
        </mxCell>
      </root>
    </mxGraphModel>
  </diagram>
</mxfile>
